# xmcd
#
# Track frame offsets:
#	150
#	19505
#	35718
#	63404
#	82491
#	103369
#	136738
#	171434
#	204455
#
# Disc length: 3441 seconds
#
# Revision: 1
# Processed by: cddbd v1.4PL0 Copyright (c) Steve Scherf et al.
# Submitted via: CDmax 2.0
#
DISCID=820d6f09
DTITLE=Eric Clapton w/ Jimmie Vaughan - Kind of Blues - d2
DYEAR=1994
DGENRE=Blues
TTITLE0=Someday After A While
TTITLE1=I'm Tore Down
TTITLE2=Have You Ever Loved A Woman
TTITLE3=Crosscut Saw
TTITLE4=Five Long Years
TTITLE5=Crossroads
TTITLE6=Groaning The Blues
TTITLE7=Ain't Nobody's Business
TTITLE8=Sweet Home Chicago
EXTD=
EXTT0=
EXTT1=
EXTT2=
EXTT3=
EXTT4=
EXTT5=
EXTT6=
EXTT7=
EXTT8=
PLAYORDER=
